<svg version="1.1"   width="1000" height="1000" viewBox="0 0 1000 1000"><rect width="1000" height="1000" fill="#ffffff"></rect><g transform="matrix(0.7,0,0,0.7,149.57575757575756,282.1265587044535)"><svg viewBox="0 0 396 247" data-background-color="#ffffff" preserveAspectRatio="xMidYMid meet" height="623" width="1000" xmlns:xlink="http://www.w3.org/1999/xlink"><g id="tight-bounds" transform="matrix(1,0,0,1,0.2400000000000091,-0.09999999999999432)"><svg viewBox="0 0 395.52 247.2" height="247.2" width="395.52"><g><svg></svg></g><g><svg viewBox="0 0 395.52 247.2" height="247.2" width="395.52"><g transform="matrix(1,0,0,1,39.55199999999999,75.48081226349868)"><svg viewBox="0 0 316.416 96.23837547300262" height="96.23837547300262" width="316.416"><g><svg viewBox="0 0 316.416 96.23837547300262" height="96.23837547300262" width="316.416"><g><svg viewBox="0 0 316.416 96.23837547300262" height="96.23837547300262" width="316.416"><g><svg viewBox="0 0 316.416 96.23837547300262" height="96.23837547300262" width="316.416"><g id="textblocktransform"><svg viewBox="0 0 316.416 96.23837547300262" height="96.23837547300262" width="316.416" id="textblock"><g><svg viewBox="0 0 316.416 64.55241233556177" height="64.55241233556177" width="316.416"><g transform="matrix(1,0,0,1,0,0)"><svg width="316.416" viewBox="0.699999988079071 -29.600000381469727 231.82000732421875 47.30000305175781" height="64.55241233556177" data-palette-color="#010c80"><path d="M32.25-26.4L32.25-26.4Q32.25-25.3 31.35-23.85L31.35-23.85Q30.6-22.5 29.68-22 28.75-21.5 28.75-22.1L28.75-22.1Q28.75-22.15 29.3-22.7L29.3-22.7Q30.95-24.25 30.95-25.25L30.95-25.25Q30.95-27.4 26.7-27.4L26.7-27.4Q24.9-27.4 21.95-26.73 19-26.05 16.25-24.55L16.25-24.55Q13.05-22.8 13.05-21.5L13.05-21.5Q13.05-20.45 15-19.5L15-19.5Q16.05-19 19.18-17.82 22.3-16.65 24.23-15.78 26.15-14.9 27.88-13.3 29.6-11.7 29.6-9.75 29.6-7.8 27.3-5.5L27.3-5.5Q23.8-2.15 18.2 0.08 12.6 2.3 8.6 2.3L8.6 2.3Q0.7 2.3 0.7-2.15 0.7-6.6 5.55-9.7L5.55-9.7Q9.55-12.45 13.95-12.45L13.95-12.45Q15-12.45 14.9-12.1L14.9-12.1Q14.8-11.75 13.4-11.73 12-11.7 9.8-10.78 7.6-9.85 5.7-8.1L5.7-8.1Q3.2-5.85 3.2-3.6L3.2-3.6Q3.2-2.2 4.55-1.1 5.9 0 9.7 0 13.5 0 17.2-1.2L17.2-1.2Q25.2-3.85 27.2-7L27.2-7Q28-8.15 28-8.95L28-8.95Q28-11.25 25.2-12.55L25.2-12.55Q21.95-14.05 16.1-16L16.1-16Q13.85-16.75 12.28-17.98 10.7-19.2 10.7-20.93 10.7-22.65 12.58-24.33 14.45-26 17.1-27L17.1-27Q22.8-29.15 26.75-29.15L26.75-29.15Q32.25-29.15 32.25-26.4ZM38.95-13.95L39.6-14Q43.45-14.35 44.27-14.35 45.1-14.35 45.1-14.1L45.1-14.1Q45.1-13.8 43.92-13.48 42.75-13.15 38.2-12.65L38.2-12.65Q37.95-12.2 37.6-11.6L37.6-11.6Q36.85-10.4 36.8-10.15L36.8-10.15Q33.95-4.45 33.8-2.9L33.8-2.9Q33.75-2.45 33.75-1.75 33.75-1.05 34.15-0.6L34.15-0.6Q34.85 0.2 36.15-0.5 37.45-1.2 39.77-3.3 42.1-5.4 43.55-7.4L43.55-7.4Q43.75-7.65 44.05-7.5L44.05-7.5Q44.8-7.15 41.45-3.55L41.45-3.55Q38.25-0.1 36.1 0.7L36.1 0.7Q34.85 1.15 34 1.15L34 1.15Q32 1.15 31.35-0.75L31.35-0.75Q31.25-1.1 31.25-1.6L31.25-1.6Q31.25-3.35 32.85-6.9L32.85-6.9Q32.6-6.35 30.9-4.4L30.9-4.4Q30.45-3.9 30.2-4.4L30.2-4.4Q30.15-4.5 30.15-4.67 30.15-4.85 30.35-5.1L30.35-5.1Q32.8-8.15 34.2-10.25L34.2-10.25Q34.2-10.3 35.3-12.35L35.3-12.35Q34.8-12.25 34.27-12.25 33.75-12.25 33.5-12.58 33.25-12.9 33.45-13.35L33.45-13.35Q33.8-14.15 36.1-14.25L36.1-14.25Q36.15-14.35 36.3-14.35L36.3-14.35 38.8-19Q39-19.4 39.25-19.83 39.5-20.25 39.62-20.48 39.75-20.7 39.9-20.95 40.05-21.2 40.15-21.3 40.25-21.4 40.35-21.5L40.35-21.5Q40.55-21.8 41.52-21.8 42.5-21.8 42.85-21.25L42.85-21.25Q43-21.05 43-20.58 43-20.1 42.65-19.53 42.3-18.95 41.9-18.7 41.5-18.45 41.35-18.15L41.35-18.15 38.95-13.95ZM45.4 0.55L45.4 0.55Q44.6 0.55 43.67 0.08 42.75-0.4 42.1-1.28 41.45-2.15 41.45-3.15 41.45-4.15 41.9-5.05L41.9-5.05Q42.9-7.15 45.12-9.13 47.35-11.1 49.75-12.5 52.15-13.9 53.55-14.25 54.95-14.6 56.27-14.6 57.59-14.6 58.55-13.93 59.5-13.25 59.5-12.5L59.5-12.5Q59.5-12.25 59.45-12.2 59.4-12.15 59.2-12.25L59.2-12.25Q58.59-13.2 56.72-13.2 54.85-13.2 52.47-11.98 50.1-10.75 48-8.9L48-8.9Q46.25-7.25 44.92-5.18 43.6-3.1 43.6-2.15L43.6-2.15Q43.6-0.3 44.65-0.3 45.7-0.3 47.85-2L47.85-2Q51.4-5 52.7-6.4L52.7-6.4Q57.3-11.35 57.65-11.35L57.65-11.35Q58.25-11.35 59.09-11 59.95-10.65 59.65-10.15L59.65-10.15Q57.09-6.55 56.65-2.9L56.65-2.9Q56.6-2.45 56.6-1.75 56.6-1.05 57-0.6L57-0.6Q57.75 0.2 59.05-0.5 60.35-1.2 62.67-3.3 65-5.4 66.4-7.4L66.4-7.4Q66.59-7.65 66.84-7.53 67.09-7.4 67.09-7.3L67.09-7.3Q67.09-6.55 64.72-4.03 62.35-1.5 61.1-0.6L61.1-0.6Q58.75 1.15 56.75 1.15L56.75 1.15Q54.85 1.15 54.2-0.75L54.2-0.75Q54.05-1.35 54.05-2.1L54.05-2.1Q54.05-4.35 55-6.85L55-6.85Q54.8-6.75 53.15-4.85 51.5-2.95 49.32-1.2 47.15 0.55 45.4 0.55ZM83.09-25.5L83.09-25.5Q83.69-26.6 83.69-27.2L83.69-27.2Q83.69-28.25 82.84-28.25L82.84-28.25Q82.14-28.25 81.09-27.45L81.09-27.45Q77.09-24.35 73.34-17.65L73.34-17.65Q70.34-12.25 68.94-8.4L68.94-8.4Q72.39-10.75 76.67-16.05 80.94-21.35 83.09-25.5ZM68.19-6.4L68.19-6.4Q67.59-4.7 67.54-4.13 67.49-3.55 67.49-2.58 67.49-1.6 67.99-0.8L67.99-0.8Q68.84 0.55 70.84-0.6L70.84-0.6Q72.34-1.4 74.64-3.53 76.94-5.65 78.19-7.4L78.19-7.4Q78.29-7.55 78.49-7.55L78.49-7.55Q78.94-7.55 78.74-6.9L78.74-6.9Q77.99-5.55 75.97-3.45 73.94-1.35 72.29-0.13 70.64 1.1 68.99 1.1L68.99 1.1Q65.19 1.1 65.19-2.6L65.19-2.6Q65.19-2.75 65.19-2.9L65.19-2.9Q65.39-6.4 68.74-13.48 72.09-20.55 74.79-24.15L74.79-24.15 76.34-26.1Q76.89-26.75 77.94-27.7L77.94-27.7Q79.94-29.6 82.07-29.6 84.19-29.6 84.94-28.3L84.94-28.3Q85.19-27.85 85.19-27 85.19-26.15 84.44-24.6L84.44-24.6Q79.29-15.65 68.19-6.4ZM79.79 0.4L79.79 0.4Q77.99 1.3 77.49 1.3 76.99 1.3 76.99 1.15 76.99 1 77.07 0.83 77.14 0.65 77.77-1.05 78.39-2.75 79.34-5.35 80.29-7.95 80.99-9.7L80.99-9.7Q79.84-8.45 78.29-6.25L78.29-6.25Q78.04-5.9 77.62-6.05 77.19-6.2 77.89-7.1L77.89-7.1Q79.54-9.1 82.04-12.85L82.04-12.85Q81.29-13.25 81.29-13.63 81.29-14 81.39-14.2L81.39-14.2Q81.64-14.8 82.29-14.45L82.29-14.45Q82.59-14.35 82.69-14.35L82.69-14.35Q84.89-20.15 88.19-24.7L88.19-24.7Q89.99-27.25 91.94-28.43 93.89-29.6 95.59-29.6L95.59-29.6Q96.79-29.6 97.89-29.03 98.99-28.45 98.99-27.15L98.99-27.15Q98.99-24.65 94.69-19.9L94.69-19.9Q92.39-17.45 89.54-15.4 86.69-13.35 84.49-12.4L84.49-12.4Q82.54-8.1 81.04-3.4L81.04-3.4 84.29-7.65Q84.24-8.1 84.24-8.6L84.24-8.6Q84.24-10.1 84.89-10.45L84.89-10.45Q85.24-10.6 85.34-9.85L85.34-9.85 85.54-9.15Q89.39-13.65 91.09-14.45L91.09-14.45Q91.89-14.85 92.54-14.85 93.19-14.85 93.69-14.5 94.19-14.15 94.19-13.75L94.19-13.75Q94.19-13.05 93.04-12.5L93.04-12.5Q87.54-9.85 85.79-8L85.79-8Q86.99-3.8 88.14-1.4 89.29 1 91.77 4 94.24 7 96.29 7L96.29 7Q97.99 7 97.69 5.5L97.69 5.5Q97.49 4.15 96.87 3.18 96.24 2.2 96.74 2.2L96.74 2.2Q97.19 2.25 97.69 2.65L97.69 2.65Q97.99 3 98.39 3.88 98.79 4.75 98.79 5.35L98.79 5.35Q98.74 6.75 97.44 7.55 96.14 8.35 94.94 8.35L94.94 8.35Q92.59 8.35 90.34 6.03 88.09 3.7 86.59 0.4 85.09-2.9 84.49-6.35L84.49-6.35Q83.59-5.1 82.49-3.35L82.49-3.35Q80.24 0.1 79.79 0.4ZM96.14-24.3Q97.49-26.55 97.49-27.45 97.49-28.35 96.74-28.35 95.99-28.35 94.84-27.45L94.84-27.45Q91.64-25 89.44-21.88 87.24-18.75 85.09-14.1L85.09-14.1Q89.74-16.25 93.54-20.6L93.54-20.6Q94.79-22.05 96.14-24.3ZM108.69-13.5L108.69-13.5Q109.59-13.5 110.84-12.58 112.09-11.65 112.24-10.75L112.24-10.75Q112.29-10.4 112.29-10.1L112.29-10.1Q112.29-7.85 110.09-5.28 107.89-2.7 105.14-0.9L105.14-0.9Q100.89 2 96.69 2L96.69 2Q94.99 2 93.99 1.55L93.99 1.55Q93.19 1.15 95.99 1.15L95.99 1.15Q99.04 1.15 103.89-2.45L103.89-2.45Q108.59-5.75 109.59-10.35L109.59-10.35Q109.74-11.05 109.56-11.78 109.39-12.5 108.69-12.5L108.69-12.5Q106.44-12.5 102.79-9.35L102.79-9.35Q101.24-8.05 99.61-5.85 97.99-3.65 97.99-2.25L97.99-2.25Q97.99-2.05 98.06-1.83 98.14-1.6 97.89-1.1L97.89-1.1Q97.24 0.2 96.04-1.25L96.04-1.25Q95.74-2 95.74-2.8L95.74-2.8Q95.74-5.1 96.44-7.65L96.44-7.65Q96.24-7.45 95.56-6.43 94.89-5.4 93.99-4.4L93.99-4.4Q93.54-3.9 93.29-4.4L93.29-4.4Q93.24-4.5 93.24-4.67 93.24-4.85 93.44-5.1L93.44-5.1Q97.34-9.95 97.99-11.4L97.99-11.4Q98.89-13.9 100.74-17.93 102.59-21.95 104.14-24.35L104.14-24.35Q107.34-29.4 110.74-29.4L110.74-29.4Q111.34-29.4 111.99-29.25L111.99-29.25 112.99-28.9Q114.44-28.05 114.44-26.73 114.44-25.4 113.64-23.85L113.64-23.85Q112.34-21.2 108.04-17.18 103.74-13.15 99.69-10.35L99.69-10.35Q98.69-8.55 98.14-5.65L98.14-5.65Q99.99-8.4 102.96-10.95 105.94-13.5 108.69-13.5ZM107.09-18L107.09-18Q113.04-24 113.04-26.9L113.04-26.9Q113.04-28.1 112.14-28.1L112.14-28.1Q111.44-28.1 110.24-27.2L110.24-27.2Q105.09-23.25 100.24-12.35L100.24-12.35Q103.64-14.6 107.09-18ZM124.54-5.5L124.54-5.5Q125.44-7.35 125.44-8.35 125.44-9.35 125.21-9.93 124.99-10.5 125.41-10.9 125.84-11.3 126.49-11.2L126.49-11.2Q127.49-10.95 127.49-8.95 127.49-6.95 125.14-3.7L125.14-3.7Q125.19-2.35 126.54-2.35 127.89-2.35 130.64-5.25L130.64-5.25Q131.94-6.75 132.26-7.2 132.59-7.65 132.84-7.53 133.09-7.4 133.09-7.3L133.09-7.3Q133.09-6.8 131.29-4.7L131.29-4.7Q128.44-1.2 126.24-1.2L126.24-1.2Q124.79-1.2 124.19-2.45L124.19-2.45Q123.19-1.4 122.24-0.5L122.24-0.5Q120.29 1.15 117.89 1.15L117.89 1.15Q116.54 1.15 115.64 0.5L115.64 0.5Q113.89-0.55 113.89-3.25L113.89-3.25Q113.89-6.2 115.89-9.25L115.89-9.25Q117.04-11.05 118.59-12.4L118.59-12.4Q121.04-14.55 123.24-14.55L123.24-14.55Q123.79-14.55 124.29-14.4L124.29-14.4Q125.79-13.9 125.79-12.5L125.79-12.5Q125.79-11.35 125.19-11.35L125.19-11.35Q124.94-11.45 124.94-12.1L124.94-12.1Q124.94-13 123.94-13L123.94-13Q122.19-13 119.44-9.8 116.69-6.6 116.14-3.35L116.14-3.35Q116.04-2.8 116.04-2.13 116.04-1.45 116.49-0.58 116.94 0.3 118.16 0.3 119.39 0.3 120.84-0.8 122.29-1.9 123.44-3.6L123.44-3.6 123.29-3.9Q123.09-4.7 123.49-5.2 123.89-5.7 124.54-5.5ZM142.08-5.5L142.08-5.5Q142.98-7.35 142.98-8.35 142.98-9.35 142.76-9.93 142.53-10.5 142.96-10.9 143.38-11.3 144.03-11.2L144.03-11.2Q145.03-10.95 145.03-8.95 145.03-6.95 142.68-3.7L142.68-3.7Q142.73-2.35 144.08-2.35 145.43-2.35 148.18-5.25L148.18-5.25Q149.48-6.75 149.81-7.2 150.13-7.65 150.38-7.53 150.63-7.4 150.63-7.3L150.63-7.3Q150.63-6.8 148.83-4.7L148.83-4.7Q145.98-1.2 143.78-1.2L143.78-1.2Q142.33-1.2 141.73-2.45L141.73-2.45Q140.73-1.4 139.78-0.5L139.78-0.5Q137.83 1.15 135.43 1.15L135.43 1.15Q134.08 1.15 133.18 0.5L133.18 0.5Q131.43-0.55 131.43-3.25L131.43-3.25Q131.43-6.2 133.43-9.25L133.43-9.25Q134.58-11.05 136.13-12.4L136.13-12.4Q138.58-14.55 140.78-14.55L140.78-14.55Q141.33-14.55 141.83-14.4L141.83-14.4Q143.33-13.9 143.33-12.5L143.33-12.5Q143.33-11.35 142.73-11.35L142.73-11.35Q142.48-11.45 142.48-12.1L142.48-12.1Q142.48-13 141.48-13L141.48-13Q139.73-13 136.98-9.8 134.23-6.6 133.68-3.35L133.68-3.35Q133.58-2.8 133.58-2.13 133.58-1.45 134.03-0.58 134.48 0.3 135.71 0.3 136.93 0.3 138.38-0.8 139.83-1.9 140.98-3.6L140.98-3.6 140.83-3.9Q140.63-4.7 141.03-5.2 141.43-5.7 142.08-5.5ZM151.58 0.4L151.58 0.4Q149.78 1.3 149.28 1.3 148.78 1.3 148.78 1.15 148.78 1 148.86 0.83 148.93 0.65 149.56-1.05 150.18-2.75 151.13-5.35 152.08-7.95 152.78-9.7L152.78-9.7Q151.63-8.45 150.08-6.25L150.08-6.25Q149.83-5.9 149.41-6.05 148.98-6.2 149.68-7.1L149.68-7.1Q151.33-9.1 153.83-12.85L153.83-12.85Q153.08-13.25 153.08-13.63 153.08-14 153.18-14.2L153.18-14.2Q153.43-14.8 154.08-14.45L154.08-14.45Q154.38-14.35 154.48-14.35L154.48-14.35Q156.68-20.15 159.98-24.7L159.98-24.7Q161.78-27.25 163.73-28.43 165.68-29.6 167.38-29.6L167.38-29.6Q168.58-29.6 169.68-29.03 170.78-28.45 170.78-27.15L170.78-27.15Q170.78-24.65 166.48-19.9L166.48-19.9Q164.18-17.45 161.33-15.4 158.48-13.35 156.28-12.4L156.28-12.4Q154.33-8.1 152.83-3.4L152.83-3.4 156.08-7.65Q156.03-8.1 156.03-8.6L156.03-8.6Q156.03-10.1 156.68-10.45L156.68-10.45Q157.03-10.6 157.13-9.85L157.13-9.85 157.33-9.15Q161.18-13.65 162.88-14.45L162.88-14.45Q163.68-14.85 164.33-14.85 164.98-14.85 165.48-14.5 165.98-14.15 165.98-13.75L165.98-13.75Q165.98-13.05 164.83-12.5L164.83-12.5Q159.33-9.85 157.58-8L157.58-8Q158.78-3.8 159.93-1.4 161.08 1 163.56 4 166.03 7 168.08 7L168.08 7Q169.78 7 169.48 5.5L169.48 5.5Q169.28 4.15 168.66 3.18 168.03 2.2 168.53 2.2L168.53 2.2Q168.98 2.25 169.48 2.65L169.48 2.65Q169.78 3 170.18 3.88 170.58 4.75 170.58 5.35L170.58 5.35Q170.53 6.75 169.23 7.55 167.93 8.35 166.73 8.35L166.73 8.35Q164.38 8.35 162.13 6.03 159.88 3.7 158.38 0.4 156.88-2.9 156.28-6.35L156.28-6.35Q155.38-5.1 154.28-3.35L154.28-3.35Q152.03 0.1 151.58 0.4ZM167.93-24.3Q169.28-26.55 169.28-27.45 169.28-28.35 168.53-28.35 167.78-28.35 166.63-27.45L166.63-27.45Q163.43-25 161.23-21.88 159.03-18.75 156.88-14.1L156.88-14.1Q161.53-16.25 165.33-20.6L165.33-20.6Q166.58-22.05 167.93-24.3ZM172.23-2.2L172.23-2.2 172.23-1.35Q172.23-1 171.68-0.2 171.13 0.6 170.83 0.6L170.83 0.6Q169.18 0.6 169.18-0.2L169.18-0.2Q169.18-0.6 170.18-1.4L170.18-1.4Q171.58-2.5 171.9-2.5 172.23-2.5 172.23-2.2ZM178.03 0.55L178.03 0.55Q177.23 0.55 176.3 0.08 175.38-0.4 174.73-1.28 174.08-2.15 174.08-3.15 174.08-4.15 174.53-5.05L174.53-5.05Q175.53-7.15 177.75-9.13 179.98-11.1 182.38-12.5 184.78-13.9 186.18-14.25 187.58-14.6 188.9-14.6 190.23-14.6 191.18-13.93 192.13-13.25 192.13-12.5L192.13-12.5Q192.13-12.25 192.08-12.2 192.03-12.15 191.83-12.25L191.83-12.25Q191.23-13.2 189.35-13.2 187.48-13.2 185.1-11.98 182.73-10.75 180.63-8.9L180.63-8.9Q178.88-7.25 177.55-5.18 176.23-3.1 176.23-2.15L176.23-2.15Q176.23-0.3 177.28-0.3 178.33-0.3 180.48-2L180.48-2Q184.03-5 185.33-6.4L185.33-6.4Q189.93-11.35 190.28-11.35L190.28-11.35Q190.88-11.35 191.73-11 192.58-10.65 192.28-10.15L192.28-10.15Q189.73-6.55 189.28-2.9L189.28-2.9Q189.23-2.45 189.23-1.75 189.23-1.05 189.63-0.6L189.63-0.6Q190.38 0.2 191.68-0.5 192.98-1.2 195.3-3.3 197.63-5.4 199.03-7.4L199.03-7.4Q199.23-7.65 199.48-7.53 199.73-7.4 199.73-7.3L199.73-7.3Q199.73-6.55 197.35-4.03 194.98-1.5 193.73-0.6L193.73-0.6Q191.38 1.15 189.38 1.15L189.38 1.15Q187.48 1.15 186.83-0.75L186.83-0.75Q186.68-1.35 186.68-2.1L186.68-2.1Q186.68-4.35 187.63-6.85L187.63-6.85Q187.43-6.75 185.78-4.85 184.13-2.95 181.95-1.2 179.78 0.55 178.03 0.55ZM214.02-10.4L214.02-10.4Q214.02-8.2 212.22-5.93 210.42-3.65 207.97-1.95L207.97-1.95Q205.72-0.5 203.4 0.3 201.07 1.1 199.9 1.1 198.72 1.1 197.97 0.85L197.97 0.85Q196.87 3.4 194.92 9.4L194.92 9.4Q194.72 10.05 194.7 11.03 194.67 12 194.1 13.68 193.52 15.35 192.97 16.35L192.97 16.35Q192.72 16.95 191.52 17.32 190.32 17.7 189.82 17.7 189.32 17.7 189.32 17.2L189.32 17.2Q189.32 17 189.47 16.65L189.47 16.65Q191.77 11.95 195.27 2.83 198.77-6.3 199.12-7.3 199.47-8.3 200.12-10.2L200.12-10.2Q201.22-13.4 201.32-15L201.32-15Q201.32-15.6 202.92-15.6 204.52-15.6 204.52-14.45L204.52-14.45Q204.52-13.6 203.55-12.08 202.57-10.55 200.67-6L200.67-6Q203.57-10.4 205.37-11.75L205.37-11.75Q207.77-13.7 210.02-13.7L210.02-13.7Q210.92-13.7 211.82-13.4L211.82-13.4Q213.77-12.7 213.97-11.15L213.97-11.15Q214.02-10.75 214.02-10.4ZM211.57-11.1L211.57-11.1Q211.57-12.85 210.22-12.85L210.22-12.85Q209.42-12.85 207.62-11.9 205.82-10.95 204.02-9.05 202.22-7.15 201.25-5.48 200.27-3.8 199.42-2.02 198.57-0.25 198.42 0.05L198.42 0.05Q201.47 0.05 205.12-2.6 208.77-5.25 210.57-8.35L210.57-8.35Q211.57-9.9 211.57-11.1ZM232.52-10.4L232.52-10.4Q232.52-8.2 230.72-5.93 228.92-3.65 226.47-1.95L226.47-1.95Q224.22-0.5 221.9 0.3 219.57 1.1 218.4 1.1 217.22 1.1 216.47 0.85L216.47 0.85Q215.37 3.4 213.42 9.4L213.42 9.4Q213.22 10.05 213.2 11.03 213.17 12 212.6 13.68 212.02 15.35 211.47 16.35L211.47 16.35Q211.22 16.95 210.02 17.32 208.82 17.7 208.32 17.7 207.82 17.7 207.82 17.2L207.82 17.2Q207.82 17 207.97 16.65L207.97 16.65Q210.27 11.95 213.77 2.83 217.27-6.3 217.62-7.3 217.97-8.3 218.62-10.2L218.62-10.2Q219.72-13.4 219.82-15L219.82-15Q219.82-15.6 221.42-15.6 223.02-15.6 223.02-14.45L223.02-14.45Q223.02-13.6 222.05-12.08 221.07-10.55 219.17-6L219.17-6Q222.07-10.4 223.87-11.75L223.87-11.75Q226.27-13.7 228.52-13.7L228.52-13.7Q229.42-13.7 230.32-13.4L230.32-13.4Q232.27-12.7 232.47-11.15L232.47-11.15Q232.52-10.75 232.52-10.4ZM230.07-11.1L230.07-11.1Q230.07-12.85 228.72-12.85L228.72-12.85Q227.92-12.85 226.12-11.9 224.32-10.95 222.52-9.05 220.72-7.15 219.75-5.48 218.77-3.8 217.92-2.02 217.07-0.25 216.92 0.05L216.92 0.05Q219.97 0.05 223.62-2.6 227.27-5.25 229.07-8.35L229.07-8.35Q230.07-9.9 230.07-11.1Z" opacity="1" transform="matrix(1,0,0,1,0,0)" fill="#000000" class="undefined-text-0" data-fill-palette-color="primary" id="text-0"></path></svg></g></svg></g><g transform="matrix(1,0,0,1,0,79.79168763009184)"><svg viewBox="0 0 316.416 16.44668784291077" height="16.44668784291077" width="316.416"><g transform="matrix(1,0,0,1,0,0)"><svg width="316.416" viewBox="3.5999999046325684 -33.75 865.6600341796875 45" height="16.44668784291077" data-palette-color="#041e29"><path d="M9.25-1.8Q9.1-1.05 8.38-0.53 7.65 0 6.35 0L6.35 0Q5.25 0 4.63-0.6 4-1.2 3.95-1.85L3.95-1.85Q4.25-3.95 4.25-8.15L4.25-8.15Q4.25-10.65 3.95-15.85L3.95-15.85Q3.6-20.75 3.6-24.55L3.6-24.55Q3.6-26.6 3.8-28.75L3.8-28.75Q3.8-29.45 4.63-30.25 5.45-31.05 6.9-31.25L6.9-31.25Q11.65-31.75 18.55-31.75L18.55-31.75 20.15-31.75Q21.95-31.75 23.68-31.1 25.4-30.45 25.4-28.85L25.4-28.85Q25.4-27.8 24.9-27.2 24.4-26.6 23.05-26.6L23.05-26.6Q22.4-26.6 21.55-26.7 20.7-26.8 20.35-26.85L20.35-26.85Q18.45-27.15 17.4-27.15L17.4-27.15Q11.6-27.15 8.65-26.35L8.65-26.35Q8.65-24.7 8.75-21L8.75-21 8.8-17.8Q11.4-17.8 13.45-18.03 15.5-18.25 15.8-18.3L15.8-18.3Q18.4-18.6 19.25-18.6L19.25-18.6Q20.45-18.6 21.28-18.07 22.1-17.55 22.1-16.45L22.1-16.45Q22.1-13.95 18.6-13.95L18.6-13.95Q17.75-13.95 17.1-13.9 16.45-13.85 16-13.8L16-13.8Q14.2-13.6 13.15-13.6L13.15-13.6Q10.85-13.6 9.25-13.45L9.25-13.45Q9.25-11.6 9.4-9.55L9.4-9.55Q9.4-8.9 9.47-7.55 9.55-6.2 9.55-5.1L9.55-5.1Q9.55-4.15 9.5-3.35 9.45-2.55 9.25-1.8L9.25-1.8ZM48.1-16.05Q48.5-15.35 48.75-14.03 49-12.7 49-11.65L49-11.65Q49-9.7 48.15-6.1L48.15-6.1Q44.7 0.2 37.95 0.2L37.95 0.2Q35.45 0.2 32.85-1.45 30.25-3.1 29.25-5.25L29.25-5.25Q27.9-9.55 27.9-10.7L27.9-10.7Q27.9-12.7 28.77-14.95 29.65-17.2 31-18.85L31-18.85Q31.85-20 34.05-20.83 36.25-21.65 38.05-21.65L38.05-21.65Q41.55-21.65 44-20.33 46.45-19 48.1-16.05L48.1-16.05ZM43.75-8Q44-8.65 44-11.35L44-11.35Q44-12.8 43.47-14.2 42.95-15.6 41.95-16.6L41.95-16.6Q41.85-16.7 41.4-16.93 40.95-17.15 40.17-17.38 39.4-17.6 38.4-17.6L38.4-17.6Q35.6-17.6 34.3-15.35 33-13.1 33-10.25L33-10.25Q33-9.75 33.27-8.35 33.55-6.95 33.75-6.6L33.75-6.6Q33.9-6.25 34.52-5.63 35.15-5 36.07-4.53 37-4.05 38-4.05L38-4.05Q40.25-4.05 41.6-5.13 42.95-6.2 43.75-8L43.75-8ZM61.3-2Q61.3-1.15 60.65-0.5 60 0.15 59.05 0.15L59.05 0.15Q57.55 0.15 56.85-0.43 56.15-1 56.15-2.55L56.15-2.55Q56.15-4.4 56.05-7.4L56.05-7.4Q55.95-9.9 55.95-11.6L55.95-11.6Q55.95-12.4 56.05-13.7L56.05-13.7Q56.15-14.9 56.15-15.5L56.15-15.5Q56-16.45 55.4-17.07 54.8-17.7 53.85-17.7L53.85-17.7Q53.4-17.7 53.1-18.13 52.8-18.55 52.8-19L52.8-19Q52.8-20.15 53.72-20.75 54.65-21.35 55.95-21.35L55.95-21.35Q58.65-21.35 59.7-18.15L59.7-18.15Q61-19.65 62.67-20.58 64.34-21.5 65.9-21.5L65.9-21.5Q67.75-21.5 69.27-20.5 70.8-19.5 70.8-17.8L70.8-17.8Q70.8-16.85 69.97-15.85 69.15-14.85 68.3-14.85L68.3-14.85Q67.84-14.85 67.52-15.08 67.2-15.3 66.75-15.75L66.75-15.75Q66.25-16.25 65.9-16.48 65.55-16.7 65.09-16.7L65.09-16.7Q64.3-16.7 63.6-16.45 62.9-16.2 62.65-15.85L62.65-15.85Q61.85-14.6 61.47-13.6 61.1-12.6 61.1-11.45L61.1-11.45Q61.1-10.6 61.05-10.1L61.05-10.1 61-7.25Q61-6.6 61.05-5.8 61.1-5 61.15-4.6L61.15-4.6Q61.3-3.25 61.3-2L61.3-2ZM118.54-28.9Q118.84-29.95 119.44-30.63 120.04-31.3 120.74-31.3L120.74-31.3Q122.44-31.3 123.19-30.65 123.94-30 123.94-28.4L123.94-28.4Q123.94-27.95 123.24-25.85L123.24-25.85Q121.69-21.1 119.84-14.1L119.84-14.1Q119.39-12.5 119.12-11.3 118.84-10.1 118.64-9.3L118.64-9.3Q117.44-4.15 116.54-1.55L116.54-1.55Q116.24-0.8 115.49-0.38 114.74 0.05 113.89 0.05L113.89 0.05Q113.04 0.05 112.22-0.33 111.39-0.7 111.04-1.2L111.04-1.2Q109.49-4.25 107.22-9.53 104.94-14.8 103.69-18.75L103.69-18.75Q100.59-10.9 98.14-3.6L98.14-3.6Q97.99-3.15 97.81-2.63 97.64-2.1 97.44-1.55L97.44-1.55Q97.09-0.8 96.44-0.38 95.79 0.05 94.99 0.05L94.99 0.05Q94.09 0.05 93.24-0.33 92.39-0.7 92.09-1.2L92.09-1.2Q91.44-2.3 90.72-4.6 89.99-6.9 88.79-11.05L88.79-11.05 87.54-15.3Q86.24-19.45 85.29-23.8 84.34-28.15 84.34-29L84.34-29Q84.34-30.05 85.39-30.68 86.44-31.3 87.49-31.3L87.49-31.3Q88.09-31.3 88.74-30.93 89.39-30.55 89.59-29.65L89.59-29.65Q91.34-20.3 94.74-7.95L94.74-7.95Q96.04-11.05 97.62-15.5 99.19-19.95 100.64-24.15L100.64-24.15 101.14-25.65Q101.34-26.4 102.17-26.83 102.99-27.25 103.84-27.25L103.84-27.25Q104.94-27.25 105.64-26.7 106.34-26.15 106.54-25.5L106.54-25.5Q106.59-25.3 108.54-19.55 110.49-13.8 113.19-7.95L113.19-7.95Q114.19-10.9 115.59-17.4L115.59-17.4 116.34-20.7Q117.69-26 118.54-28.9L118.54-28.9ZM133.79-31.7Q133.79-30.4 133.74-28.68 133.69-26.95 133.64-26.05L133.64-26.05Q133.49-23.5 133.49-20.95L133.49-20.95Q133.49-19.05 133.64-17L133.64-17Q135.19-19.25 136.99-20.3 138.79-21.35 141.34-21.35L141.34-21.35Q143.19-21.35 144.79-19.7 146.39-18.05 146.84-15.85L146.84-15.85Q146.99-13.9 146.99-11.1L146.99-11.1Q146.99-9.3 147.19-6.4L147.19-6.4Q147.29-5.3 147.76-4.35 148.24-3.4 149.14-3.4L149.14-3.4Q149.59-3.4 149.86-3.45 150.14-3.5 150.39-3.5L150.39-3.5Q151.09-3.5 151.36-3.15 151.64-2.8 151.64-2.15L151.64-2.15Q151.64-0.95 150.44-0.35 149.24 0.25 148.24 0.25L148.24 0.25Q144.64 0.25 143.29-2.75L143.29-2.75Q142.54-4.45 142.34-7.18 142.14-9.9 142.14-13.55L142.14-13.55Q142.14-17.15 139.69-17.15L139.69-17.15Q138.34-17.15 136.96-15.73 135.59-14.3 134.69-11.98 133.79-9.65 133.79-7.15L133.79-7.15 133.84-1.95Q133.84-0.85 132.99-0.33 132.14 0.2 131.39 0.2L131.39 0.2Q130.29 0.2 129.39-0.48 128.49-1.15 128.49-2L128.49-2Q128.84-5.75 128.84-14.55L128.84-14.55Q128.84-16.15 128.59-26.4L128.59-26.4 128.44-31Q128.44-32.1 129.44-32.93 130.44-33.75 131.69-33.75L131.69-33.75Q132.79-33.75 133.29-33.25 133.79-32.75 133.79-31.7L133.79-31.7ZM154.24-10.6Q154.24-12.5 154.94-14.43 155.64-16.35 156.79-17.95L156.79-17.95Q157.94-19.55 160.44-20.58 162.94-21.6 164.89-21.6L164.89-21.6Q166.89-21.6 168.96-21.05 171.04-20.5 171.84-19.35L171.84-19.35Q173.69-16.75 173.69-14.25L173.69-14.25Q173.69-12.9 173.11-11.95 172.54-11 171.49-9.9L171.49-9.9Q170.64-9 168.81-8.7 166.99-8.4 165.19-8.4L165.19-8.4Q164.04-8.4 162.39-8.63 160.74-8.85 159.19-9.2L159.19-9.2Q159.29-8.2 159.69-7.25 160.09-6.3 160.64-5.8L160.64-5.8Q161.64-4.85 162.71-4.6 163.79-4.35 165.49-4.35L165.49-4.35Q167.29-4.35 168.84-4.95L168.84-4.95Q170.09-5.4 170.89-5.4L170.89-5.4Q171.84-5.4 172.34-4.83 172.84-4.25 172.84-3.35L172.84-3.35Q172.84-2.1 171.39-1.3 169.94-0.5 168.06-0.13 166.19 0.25 165.04 0.25L165.04 0.25Q162.69 0.25 160.49-0.6 158.29-1.45 156.84-3L156.84-3Q155.64-4.4 154.94-6.38 154.24-8.35 154.24-10.6L154.24-10.6ZM165.14-17.35Q164.04-17.35 162.94-16.93 161.84-16.5 161.14-15.75L161.14-15.75Q160.24-14.8 159.91-14.23 159.59-13.65 159.49-12.65L159.49-12.65Q160.74-12.25 164.69-12.25L164.69-12.25Q166.84-12.25 168.01-12.9 169.19-13.55 169.19-14.6L169.19-14.6Q169.19-15.65 167.89-16.5 166.59-17.35 165.14-17.35L165.14-17.35ZM201.28-3.85Q201.53-3.75 202.08-3.6 202.63-3.45 202.88-3.3 203.13-3.15 203.13-2.85L203.13-2.85Q203.18-1.65 202.26-0.88 201.33-0.1 200.08-0.1L200.08-0.1Q198.13-0.1 197.03-1.15 195.93-2.2 195.43-4.35L195.43-4.35Q195.23-5.2 195.23-6.7L195.23-6.7Q195.23-7.55 195.33-9.45L195.33-9.45Q195.43-11.45 195.43-12.65L195.43-12.65Q195.43-14.4 194.46-15.73 193.48-17.05 191.73-17.05L191.73-17.05Q190.68-17.05 189.53-16.43 188.38-15.8 187.93-14.9L187.93-14.9Q187.18-13.45 186.88-11.75L186.88-11.75Q186.33-8.75 186.33-5.5L186.33-5.5Q186.33-3.95 186.38-3.1L186.38-3.1Q186.38-2.9 186.41-2.33 186.43-1.75 186.31-1.28 186.18-0.8 185.88-0.4L185.88-0.4Q185.63-0.15 185.11 0.03 184.58 0.2 184.13 0.2L184.13 0.2Q183.43 0.2 182.38-0.4 181.33-1 181.18-1.75L181.18-1.75 181.13-2.6Q181.13-3.05 181.23-3.65L181.23-3.65Q181.83-7.15 181.83-9.75L181.83-9.75Q181.83-10.9 181.78-11.55L181.78-11.55 181.73-13.9Q181.73-15.1 181.13-16.23 180.53-17.35 179.73-17.35L179.73-17.35Q179.48-17.35 179.03-17.18 178.58-17 178.28-17L178.28-17Q177.78-17 177.21-17.5 176.63-18 176.63-18.55L176.63-18.55Q176.63-19.6 177.33-20.25L177.33-20.25Q178.08-20.85 178.81-21.2 179.53-21.55 180.48-21.55L180.48-21.55Q181.28-21.55 181.78-21.4 182.28-21.25 183.13-20.75L183.13-20.75Q183.58-20.5 184.18-19.65 184.78-18.8 185.18-17.25L185.18-17.25Q186.48-19.65 188.41-20.63 190.33-21.6 193.33-21.6L193.33-21.6Q194.48-21.6 195.81-20.85 197.13-20.1 198.08-19.1L198.08-19.1Q198.98-18 199.58-16.38 200.18-14.75 200.18-13.45L200.18-13.45Q200.18-12.7 200.08-11L200.08-11Q199.93-9.65 199.93-8.15L199.93-8.15Q199.93-4.65 201.28-3.85L201.28-3.85ZM224.58-1.8Q224.43-1.05 223.7-0.53 222.98 0 221.68 0L221.68 0Q220.58 0 219.95-0.6 219.33-1.2 219.28-1.85L219.28-1.85Q219.58-3.95 219.58-8.15L219.58-8.15Q219.58-10.65 219.28-15.85L219.28-15.85Q218.93-20.75 218.93-24.55L218.93-24.55Q218.93-26.6 219.13-28.75L219.13-28.75Q219.13-29.45 219.95-30.25 220.78-31.05 222.23-31.25L222.23-31.25Q226.98-31.75 233.88-31.75L233.88-31.75 235.48-31.75Q237.28-31.75 239-31.1 240.73-30.45 240.73-28.85L240.73-28.85Q240.73-27.8 240.23-27.2 239.73-26.6 238.38-26.6L238.38-26.6Q237.73-26.6 236.88-26.7 236.03-26.8 235.68-26.85L235.68-26.85Q233.78-27.15 232.73-27.15L232.73-27.15Q226.93-27.15 223.98-26.35L223.98-26.35Q223.98-24.7 224.08-21L224.08-21 224.13-17.8Q226.73-17.8 228.78-18.03 230.83-18.25 231.13-18.3L231.13-18.3Q233.73-18.6 234.58-18.6L234.58-18.6Q235.78-18.6 236.6-18.07 237.43-17.55 237.43-16.45L237.43-16.45Q237.43-13.95 233.93-13.95L233.93-13.95Q233.08-13.95 232.43-13.9 231.78-13.85 231.33-13.8L231.33-13.8Q229.53-13.6 228.48-13.6L228.48-13.6Q226.18-13.6 224.58-13.45L224.58-13.45Q224.58-11.6 224.73-9.55L224.73-9.55Q224.73-8.9 224.8-7.55 224.88-6.2 224.88-5.1L224.88-5.1Q224.88-4.15 224.83-3.35 224.78-2.55 224.58-1.8L224.58-1.8ZM266.38-2.4Q266.38-1.3 265.2-0.55 264.03 0.2 263.03 0.2L263.03 0.2Q261.13 0.2 260-0.28 258.88-0.75 257.93-2.05L257.93-2.05Q256.63-0.9 254.38-0.33 252.13 0.25 250.23 0.25L250.23 0.25Q247.13 0.25 245.13-1.43 243.13-3.1 243.13-6.35L243.13-6.35Q243.13-7.75 243.88-8.93 244.63-10.1 245.93-11L245.93-11Q247.38-11.95 249.23-12.48 251.08-13 253.08-13L253.08-13Q254.13-13 255.58-12.6 257.03-12.2 257.83-11.75L257.83-11.75 257.83-12.55Q257.83-15.25 256.53-16.28 255.23-17.3 252.33-17.3L252.33-17.3Q251.48-17.3 250.65-16.95 249.83-16.6 248.78-16L248.78-16Q247.38-15.25 246.13-15.25L246.13-15.25Q245.68-15.25 245.28-15.88 244.88-16.5 244.88-17L244.88-17Q244.88-18.45 246.25-19.5 247.63-20.55 249.53-21.08 251.43-21.6 252.93-21.6L252.93-21.6Q254.43-21.6 256.38-21.03 258.33-20.45 259.58-19.45L259.58-19.45Q261.08-18.15 261.9-16.43 262.73-14.7 262.73-12.65L262.73-12.65Q262.73-12 262.63-10.7L262.63-10.7Q262.53-9.3 262.53-8.3L262.53-8.3Q262.53-7.85 262.43-6.95L262.43-6.95Q262.33-5.85 262.33-5.2L262.33-5.2Q262.33-4.6 262.78-4.17 263.23-3.75 263.83-3.75L263.83-3.75 265.23-3.8Q265.78-3.8 266.08-3.4 266.38-3 266.38-2.4L266.38-2.4ZM250.28-3.7Q252.43-3.7 253.88-4.15 255.33-4.6 257.38-5.8L257.38-5.8Q257.58-6.65 257.63-8.05L257.63-8.05Q254.88-9.35 253.08-9.35L253.08-9.35Q251.03-9.35 249.43-8.6 247.83-7.85 247.83-5.95L247.83-5.95Q247.83-5 248.63-4.35 249.43-3.7 250.28-3.7L250.28-3.7ZM287.42-16.7Q287.42-14.5 285.17-14.5L285.17-14.5Q284.42-14.5 283.92-14.85 283.42-15.2 282.82-15.9L282.82-15.9Q281.32-17.55 280.22-17.55L280.22-17.55Q278.77-17.55 277.4-16.7 276.02-15.85 275.17-14.3 274.32-12.75 274.32-10.85L274.32-10.85Q274.32-8.75 275.15-7.35 275.97-5.95 277.72-4.95L277.72-4.95Q278.37-4.6 279.25-4.4 280.12-4.2 280.77-4.2L280.77-4.2Q282.22-4.2 284.42-5.35L284.42-5.35Q285.22-5.75 285.77-5.95 286.32-6.15 286.92-6.15L286.92-6.15Q287.47-6.15 288.17-5.65 288.87-5.15 288.87-4.4L288.87-4.4Q288.87-2.9 287.47-1.88 286.07-0.85 284.05-0.33 282.02 0.2 280.17 0.2L280.17 0.2Q277.22 0.2 274.7-1.15 272.17-2.5 270.67-4.88 269.17-7.25 269.17-10.25L269.17-10.25Q269.17-13.45 270.62-16.1 272.07-18.75 274.52-20.25 276.97-21.75 279.87-21.75L279.87-21.75Q281.52-21.75 283.27-21.15 285.02-20.55 286.22-19.4 287.42-18.25 287.42-16.7L287.42-16.7ZM292.72-10.6Q292.72-12.5 293.42-14.43 294.12-16.35 295.27-17.95L295.27-17.95Q296.42-19.55 298.92-20.58 301.42-21.6 303.37-21.6L303.37-21.6Q305.37-21.6 307.45-21.05 309.52-20.5 310.32-19.35L310.32-19.35Q312.17-16.75 312.17-14.25L312.17-14.25Q312.17-12.9 311.6-11.95 311.02-11 309.97-9.9L309.97-9.9Q309.12-9 307.3-8.7 305.47-8.4 303.67-8.4L303.67-8.4Q302.52-8.4 300.87-8.63 299.22-8.85 297.67-9.2L297.67-9.2Q297.77-8.2 298.17-7.25 298.57-6.3 299.12-5.8L299.12-5.8Q300.12-4.85 301.2-4.6 302.27-4.35 303.97-4.35L303.97-4.35Q305.77-4.35 307.32-4.95L307.32-4.95Q308.57-5.4 309.37-5.4L309.37-5.4Q310.32-5.4 310.82-4.83 311.32-4.25 311.32-3.35L311.32-3.35Q311.32-2.1 309.87-1.3 308.42-0.5 306.55-0.13 304.67 0.25 303.52 0.25L303.52 0.25Q301.17 0.25 298.97-0.6 296.77-1.45 295.32-3L295.32-3Q294.12-4.4 293.42-6.38 292.72-8.35 292.72-10.6L292.72-10.6ZM303.62-17.35Q302.52-17.35 301.42-16.93 300.32-16.5 299.62-15.75L299.62-15.75Q298.72-14.8 298.4-14.23 298.07-13.65 297.97-12.65L297.97-12.65Q299.22-12.25 303.17-12.25L303.17-12.25Q305.32-12.25 306.5-12.9 307.67-13.55 307.67-14.6L307.67-14.6Q307.67-15.65 306.37-16.5 305.07-17.35 303.62-17.35L303.62-17.35ZM318.17-9Q318.17-11.8 318.22-13.25L318.22-13.25 318.27-18Q318.27-20.9 318.12-24.35L318.12-24.35Q318.07-25.4 317.77-27.25L317.77-27.25Q317.37-30.05 317.37-31.45L317.37-31.45Q317.37-33.75 319.67-33.75L319.67-33.75Q321.12-33.75 321.74-32.98 322.37-32.2 322.62-30.55L322.62-30.55Q323.12-27.1 323.12-22.45L323.12-22.45Q323.12-21.05 323.02-18.25L323.02-18.25Q323.97-19.75 325.49-20.6 327.02-21.45 328.52-21.45L328.52-21.45Q332.87-21.45 336.02-17.85L336.02-17.85Q336.87-16.6 337.54-14.88 338.22-13.15 338.22-11.9L338.22-11.9Q338.22-9.7 337.74-7.85 337.27-6 336.07-4.25L336.07-4.25Q334.87-2.5 333.04-1.4 331.22-0.3 328.82-0.3L328.82-0.3Q326.72-0.3 325.04-1.15 323.37-2 322.37-3.4L322.37-3.4Q322.12-2.15 321.27-0.93 320.42 0.3 319.32 0.3L319.32 0.3Q318.42 0.3 317.82-0.18 317.22-0.65 317.22-1.6L317.22-1.6Q317.22-2.3 317.52-3.35L317.52-3.35Q317.82-4.8 317.99-6.03 318.17-7.25 318.17-9L318.17-9ZM327.57-4.45Q330.02-4.45 331.67-6.18 333.32-7.9 333.32-10.85L333.32-10.85Q333.32-13.55 331.87-15.5L331.87-15.5Q331.37-16.15 330.44-16.55 329.52-16.95 328.62-16.95L328.62-16.95Q326.52-16.95 325.07-15.73 323.62-14.5 323.42-12.35L323.42-12.35Q323.22-9.45 323.22-7.35L323.22-7.35Q323.82-6.2 325.04-5.33 326.27-4.45 327.57-4.45L327.57-4.45ZM362.77-16.05Q363.17-15.35 363.42-14.03 363.67-12.7 363.67-11.65L363.67-11.65Q363.67-9.7 362.82-6.1L362.82-6.1Q359.37 0.2 352.62 0.2L352.62 0.2Q350.12 0.2 347.52-1.45 344.92-3.1 343.92-5.25L343.92-5.25Q342.57-9.55 342.57-10.7L342.57-10.7Q342.57-12.7 343.44-14.95 344.32-17.2 345.67-18.85L345.67-18.85Q346.52-20 348.72-20.83 350.92-21.65 352.72-21.65L352.72-21.65Q356.22-21.65 358.67-20.33 361.12-19 362.77-16.05L362.77-16.05ZM358.42-8Q358.67-8.65 358.67-11.35L358.67-11.35Q358.67-12.8 358.14-14.2 357.62-15.6 356.62-16.6L356.62-16.6Q356.52-16.7 356.07-16.93 355.62-17.15 354.84-17.38 354.07-17.6 353.07-17.6L353.07-17.6Q350.27-17.6 348.97-15.35 347.67-13.1 347.67-10.25L347.67-10.25Q347.67-9.75 347.94-8.35 348.22-6.95 348.42-6.6L348.42-6.6Q348.57-6.25 349.19-5.63 349.82-5 350.74-4.53 351.67-4.05 352.67-4.05L352.67-4.05Q354.92-4.05 356.27-5.13 357.62-6.2 358.42-8L358.42-8ZM388.36-16.05Q388.76-15.35 389.01-14.03 389.26-12.7 389.26-11.65L389.26-11.65Q389.26-9.7 388.41-6.1L388.41-6.1Q384.96 0.2 378.21 0.2L378.21 0.2Q375.71 0.2 373.11-1.45 370.51-3.1 369.51-5.25L369.51-5.25Q368.16-9.55 368.16-10.7L368.16-10.7Q368.16-12.7 369.04-14.95 369.91-17.2 371.26-18.85L371.26-18.85Q372.11-20 374.31-20.83 376.51-21.65 378.31-21.65L378.31-21.65Q381.81-21.65 384.26-20.33 386.71-19 388.36-16.05L388.36-16.05ZM384.01-8Q384.26-8.65 384.26-11.35L384.26-11.35Q384.26-12.8 383.74-14.2 383.21-15.6 382.21-16.6L382.21-16.6Q382.11-16.7 381.66-16.93 381.21-17.15 380.44-17.38 379.66-17.6 378.66-17.6L378.66-17.6Q375.86-17.6 374.56-15.35 373.26-13.1 373.26-10.25L373.26-10.25Q373.26-9.75 373.54-8.35 373.81-6.95 374.01-6.6L374.01-6.6Q374.16-6.25 374.79-5.63 375.41-5 376.34-4.53 377.26-4.05 378.26-4.05L378.26-4.05Q380.51-4.05 381.86-5.13 383.21-6.2 384.01-8L384.01-8ZM398.01 0.2Q397.01 0.2 396.31-0.15 395.61-0.5 395.46-0.9L395.46-0.9Q394.91-2.9 394.91-6.15L394.91-6.15Q394.91-12.15 395.11-15.9L395.11-15.9Q395.31-20.35 395.31-24.45L395.31-24.45Q395.31-25.65 395.01-27.95L395.01-27.95Q394.96-28.35 394.86-29.4 394.76-30.45 394.76-31.35L394.76-31.35Q394.76-32.45 395.54-33.1 396.31-33.75 397.56-33.75L397.56-33.75Q398.56-33.75 399.19-33.13 399.81-32.5 399.81-31.45L399.81-31.45Q399.81-29.85 399.91-26.95L399.91-26.95Q400.01-24.25 400.01-22.9L400.01-22.9Q400.01-21.4 399.91-18.9L399.91-18.9Q399.81-17.4 399.81-16.7L399.81-16.7Q399.81-14.5 399.86-13.05L399.86-13.05Q401.71-14.9 404.71-17.4 407.71-19.9 409.36-20.9L409.36-20.9Q411.11-21.95 411.66-21.95L411.66-21.95Q412.71-21.95 413.46-21.5 414.21-21.05 414.21-20.2L414.21-20.2Q414.21-19.35 413.96-18.85 413.71-18.35 413.06-17.85L413.06-17.85 406.61-13.15Q407.71-12.6 408.49-11.75 409.26-10.9 410.06-9.65L410.06-9.65Q411.76-6.85 412.79-5.55 413.81-4.25 414.66-4.25L414.66-4.25 415.91-4.3Q416.26-4.3 416.54-3.9 416.81-3.5 416.81-2.75L416.81-2.75Q416.81-1.6 415.69-0.9 414.56-0.2 413.16-0.2L413.16-0.2Q411.21-0.2 409.71-1.73 408.21-3.25 406.86-5.85L406.86-5.85Q404.91-9.55 403.01-10.25L403.01-10.25 399.81-7.65 400.01-2.2Q400.01-0.9 399.34-0.35 398.66 0.2 398.01 0.2L398.01 0.2ZM440.26-27.6Q440.11-24.4 440.11-21.45L440.11-21.45Q440.11-18.4 440.51-12.5L440.51-12.5Q440.56-11.6 440.71-8.88 440.86-6.15 440.86-3.9L440.86-3.9Q441.36-3.95 441.93-4.05 442.51-4.15 442.81-4.15L442.81-4.15Q443.91-4.15 444.56-3.6 445.21-3.05 445.21-1.9L445.21-1.9Q445.21-1.15 444.61-0.75 444.01-0.35 442.53-0.18 441.06 0 438.26 0L438.26 0Q435.16 0 433.61-0.2 432.06-0.4 431.46-0.98 430.86-1.55 430.86-2.7L430.86-2.7Q430.86-3.55 431.41-3.85 431.96-4.15 432.96-4.15L432.96-4.15 434.01-4.1 435.66-4 435.41-9.9Q435.11-14.7 435.11-18.7L435.11-18.7Q435.11-20.85 435.26-24.6L435.26-24.6 435.36-27.35Q433.66-27.25 432.71-27.25L432.71-27.25Q431.61-27.25 431.23-27.65 430.86-28.05 430.86-29.3L430.86-29.3Q430.86-30.7 432.78-31.1 434.71-31.5 438.66-31.5L438.66-31.5Q441.71-31.5 443.23-31.3 444.76-31.1 444.76-30.4L444.76-30.4Q444.76-28.7 444.03-28.18 443.31-27.65 441.26-27.65L441.26-27.65 440.26-27.6ZM463.9-11.25Q464.3-11 465.48-10.33 466.65-9.65 467.05-8.75 467.45-7.85 467.45-6.25L467.45-6.25Q467.45-4.45 466.4-3.08 465.35-1.7 463.7-0.95L463.7-0.95Q462.5-0.4 460.78-0.1 459.05 0.2 458.05 0.2L458.05 0.2Q457.05 0.2 455.48-0.1 453.9-0.4 453.3-0.65L453.3-0.65Q451.75-1.55 450.63-2.85 449.5-4.15 449.5-5.5L449.5-5.5Q449.5-6.5 450.15-7.08 450.8-7.65 451.85-7.65L451.85-7.65Q452.35-7.65 452.9-7.28 453.45-6.9 453.65-6.5L453.65-6.5Q454.2-5.2 455.5-4.55 456.8-3.9 458.15-3.9L458.15-3.9Q459.9-3.9 461.4-4.48 462.9-5.05 462.9-6.05L462.9-6.05Q462.9-6.5 462.68-6.78 462.45-7.05 462.05-7.35L462.05-7.35Q461.35-7.85 459.95-8.18 458.55-8.5 458.15-8.6L458.15-8.6Q456.1-9.05 454.15-9.95L454.15-9.95Q452.2-10.9 451.05-12.2 449.9-13.5 449.9-15.55L449.9-15.55Q449.9-16.9 450.9-18.38 451.9-19.85 453.15-20.45L453.15-20.45Q454.05-20.8 456.18-21.2 458.3-21.6 459.05-21.6L459.05-21.6Q460.2-21.6 461.55-21.38 462.9-21.15 463.6-20.65L463.6-20.65Q464.95-19.85 465.8-18.98 466.65-18.1 466.65-17L466.65-17Q466.65-16.45 466.4-15.83 466.15-15.2 465.8-15.05L465.8-15.05Q465.05-14.7 464.05-14.7L464.05-14.7Q463.6-14.7 463.33-14.95 463.05-15.2 462.6-15.75L462.6-15.75Q462.05-16.6 461.55-16.75L461.55-16.75Q460.95-16.9 459.8-17.13 458.65-17.35 458.25-17.35L458.25-17.35Q457.1-17.35 455.88-16.7 454.65-16.05 454.65-15.2L454.65-15.2Q454.65-14.75 455.03-14.5 455.4-14.25 455.83-14.05 456.25-13.85 456.4-13.8L456.4-13.8Q457.45-13.3 458.73-12.95 460-12.6 460.3-12.5L460.3-12.5Q463-11.85 463.9-11.25L463.9-11.25ZM494.95-3.85Q495.2-3.75 495.75-3.6 496.3-3.45 496.55-3.3 496.8-3.15 496.8-2.85L496.8-2.85Q496.85-1.65 495.93-0.88 495-0.1 493.75-0.1L493.75-0.1Q491.8-0.1 490.7-1.15 489.6-2.2 489.1-4.35L489.1-4.35Q488.9-5.2 488.9-6.7L488.9-6.7Q488.9-7.55 489-9.45L489-9.45Q489.1-11.45 489.1-12.65L489.1-12.65Q489.1-14.4 488.13-15.73 487.15-17.05 485.4-17.05L485.4-17.05Q484.35-17.05 483.2-16.43 482.05-15.8 481.6-14.9L481.6-14.9Q480.85-13.45 480.55-11.75L480.55-11.75Q480-8.75 480-5.5L480-5.5Q480-3.95 480.05-3.1L480.05-3.1Q480.05-2.9 480.08-2.33 480.1-1.75 479.98-1.28 479.85-0.8 479.55-0.4L479.55-0.4Q479.3-0.15 478.78 0.03 478.25 0.2 477.8 0.2L477.8 0.2Q477.1 0.2 476.05-0.4 475-1 474.85-1.75L474.85-1.75 474.8-2.6Q474.8-3.05 474.9-3.65L474.9-3.65Q475.5-7.15 475.5-9.75L475.5-9.75Q475.5-10.9 475.45-11.55L475.45-11.55 475.4-13.9Q475.4-15.1 474.8-16.23 474.2-17.35 473.4-17.35L473.4-17.35Q473.15-17.35 472.7-17.18 472.25-17 471.95-17L471.95-17Q471.45-17 470.88-17.5 470.3-18 470.3-18.55L470.3-18.55Q470.3-19.6 471-20.25L471-20.25Q471.75-20.85 472.48-21.2 473.2-21.55 474.15-21.55L474.15-21.55Q474.95-21.55 475.45-21.4 475.95-21.25 476.8-20.75L476.8-20.75Q477.25-20.5 477.85-19.65 478.45-18.8 478.85-17.25L478.85-17.25Q480.15-19.65 482.08-20.63 484-21.6 487-21.6L487-21.6Q488.15-21.6 489.48-20.85 490.8-20.1 491.75-19.1L491.75-19.1Q492.65-18 493.25-16.38 493.85-14.75 493.85-13.45L493.85-13.45Q493.85-12.7 493.75-11L493.75-11Q493.6-9.65 493.6-8.15L493.6-8.15Q493.6-4.65 494.95-3.85L494.95-3.85ZM502.25-32.75Q505.1-32.75 505.1-29.5L505.1-29.5Q505.1-28.6 504.75-26.25L504.75-26.25 504.45-24.05Q504.3-21.5 504.1-20.9L504.1-20.9Q503.95-20.55 503.45-20.18 502.95-19.8 502.35-19.8L502.35-19.8Q501.65-19.8 501.2-20.25 500.75-20.7 500.6-22L500.6-22Q500.5-22.7 500.2-26L500.2-26Q499.75-27.8 499.75-29.85L499.75-29.85Q499.75-32.75 502.25-32.75L502.25-32.75ZM512.15-17.1L509.75-17.3Q509.05-17.4 508.62-17.9 508.2-18.4 508.2-19.1L508.2-19.1Q508.2-19.45 508.37-19.85 508.55-20.25 508.9-20.55L508.9-20.55Q509.55-21.2 512.4-21.2L512.4-21.2Q512.8-23.15 512.8-25.15L512.8-25.15Q512.8-25.9 512.75-26.45 512.7-27 512.7-27.3L512.7-27.3Q512.7-28.4 513.52-28.95 514.35-29.5 515.4-29.5L515.4-29.5Q516.7-29.5 517.17-28.85 517.65-28.2 517.65-26.45L517.65-26.45Q517.65-23.85 517.2-21.35L517.2-21.35Q518-21.35 519.4-21.45L519.4-21.45Q521.3-21.55 522.15-21.55L522.15-21.55Q523-21.55 523.62-21.13 524.25-20.7 524.25-19.95L524.25-19.95Q524.25-18 522.5-17.65L522.5-17.65Q520.65-17.2 516.75-17.1L516.75-17.1Q516.6-15.15 516.6-12.85L516.6-12.85Q516.6-9.25 517.05-6.95L517.05-6.95Q517.35-5.35 518.07-4.63 518.8-3.9 520.25-3.9L520.25-3.9Q521.1-3.9 522-4.35L522-4.35Q522.6-4.7 523.1-4.7L523.1-4.7Q523.8-4.7 524.12-4.25 524.45-3.8 524.45-3.05L524.45-3.05Q524.45-1.65 522.95-0.73 521.45 0.2 519.1 0.2L519.1 0.2Q517.65 0.2 516.17-0.5 514.7-1.2 513.7-2.25L513.7-2.25Q513.55-2.4 513.15-3.4 512.75-4.4 512.45-5.55L512.45-5.55Q511.95-7.9 511.95-12.15L511.95-12.15Q511.95-14 512.15-17.1L512.15-17.1ZM565.14-27.75Q565.89-26.85 566.19-26.3 566.49-25.75 566.49-25.25L566.49-25.25Q566.49-24.65 565.72-23.85 564.94-23.05 564.19-23.05L564.19-23.05Q563.19-23.05 562.59-23.35 561.99-23.65 561.59-24.3L561.59-24.3Q560.79-25.5 559.64-26.38 558.49-27.25 556.04-27.25L556.04-27.25Q553.94-27.25 551.26-26.3 548.59-25.35 547.44-23.95L547.44-23.95Q546.44-22.7 545.72-20.15 544.99-17.6 544.99-15.2L544.99-15.2Q544.99-12.3 546.26-9.88 547.54-7.45 549.97-6 552.39-4.55 555.79-4.55L555.79-4.55Q557.64-4.55 559.62-5.28 561.59-6 563.04-7.65L563.04-7.65 562.99-7.65Q563.89-8.6 565.24-8.6L565.24-8.6Q566.04-8.6 566.76-7.9 567.49-7.2 567.49-6.5L567.49-6.5Q567.49-5.75 567.26-5.18 567.04-4.6 566.44-3.9L566.44-3.9Q564.39-1.6 561.59-0.75 558.79 0.1 554.89 0.1L554.89 0.1Q551.44 0.1 547.91-1.55 544.39-3.2 542.49-5.55L542.49-5.55Q541.49-7 540.56-9.73 539.64-12.45 539.64-14.15L539.64-14.15Q539.64-18.5 540.97-22.43 542.29-26.35 544.94-28.7L544.94-28.7Q546.69-30.3 549.99-31.1 553.29-31.9 556.04-31.9L556.04-31.9Q559.39-31.9 561.31-30.98 563.24-30.05 565.14-27.75L565.14-27.75ZM579.34-2Q579.34-1.15 578.69-0.5 578.04 0.15 577.09 0.15L577.09 0.15Q575.59 0.15 574.89-0.43 574.19-1 574.19-2.55L574.19-2.55Q574.19-4.4 574.09-7.4L574.09-7.4Q573.99-9.9 573.99-11.6L573.99-11.6Q573.99-12.4 574.09-13.7L574.09-13.7Q574.19-14.9 574.19-15.5L574.19-15.5Q574.04-16.45 573.44-17.07 572.84-17.7 571.89-17.7L571.89-17.7Q571.44-17.7 571.14-18.13 570.84-18.55 570.84-19L570.84-19Q570.84-20.15 571.76-20.75 572.69-21.35 573.99-21.35L573.99-21.35Q576.69-21.35 577.74-18.15L577.74-18.15Q579.04-19.65 580.71-20.58 582.39-21.5 583.94-21.5L583.94-21.5Q585.79-21.5 587.31-20.5 588.84-19.5 588.84-17.8L588.84-17.8Q588.84-16.85 588.01-15.85 587.19-14.85 586.34-14.85L586.34-14.85Q585.89-14.85 585.56-15.08 585.24-15.3 584.79-15.75L584.79-15.75Q584.29-16.25 583.94-16.48 583.59-16.7 583.14-16.7L583.14-16.7Q582.34-16.7 581.64-16.45 580.94-16.2 580.69-15.85L580.69-15.85Q579.89-14.6 579.51-13.6 579.14-12.6 579.14-11.45L579.14-11.45Q579.14-10.6 579.09-10.1L579.09-10.1 579.04-7.25Q579.04-6.6 579.09-5.8 579.14-5 579.19-4.6L579.19-4.6Q579.34-3.25 579.34-2L579.34-2ZM591.38-10.6Q591.38-12.5 592.08-14.43 592.78-16.35 593.93-17.95L593.93-17.95Q595.08-19.55 597.58-20.58 600.08-21.6 602.03-21.6L602.03-21.6Q604.03-21.6 606.11-21.05 608.18-20.5 608.98-19.35L608.98-19.35Q610.83-16.75 610.83-14.25L610.83-14.25Q610.83-12.9 610.26-11.95 609.68-11 608.63-9.9L608.63-9.9Q607.78-9 605.96-8.7 604.13-8.4 602.33-8.4L602.33-8.4Q601.18-8.4 599.53-8.63 597.88-8.85 596.33-9.2L596.33-9.2Q596.43-8.2 596.83-7.25 597.23-6.3 597.78-5.8L597.78-5.8Q598.78-4.85 599.86-4.6 600.93-4.35 602.63-4.35L602.63-4.35Q604.43-4.35 605.98-4.95L605.98-4.95Q607.23-5.4 608.03-5.4L608.03-5.4Q608.98-5.4 609.48-4.83 609.98-4.25 609.98-3.35L609.98-3.35Q609.98-2.1 608.53-1.3 607.08-0.5 605.21-0.13 603.33 0.25 602.18 0.25L602.18 0.25Q599.83 0.25 597.63-0.6 595.43-1.45 593.98-3L593.98-3Q592.78-4.4 592.08-6.38 591.38-8.35 591.38-10.6L591.38-10.6ZM602.28-17.35Q601.18-17.35 600.08-16.93 598.98-16.5 598.28-15.75L598.28-15.75Q597.38-14.8 597.06-14.23 596.73-13.65 596.63-12.65L596.63-12.65Q597.88-12.25 601.83-12.25L601.83-12.25Q603.98-12.25 605.16-12.9 606.33-13.55 606.33-14.6L606.33-14.6Q606.33-15.65 605.03-16.5 603.73-17.35 602.28-17.35L602.28-17.35ZM615.23-10.6Q615.23-12.5 615.93-14.43 616.63-16.35 617.78-17.95L617.78-17.95Q618.93-19.55 621.43-20.58 623.93-21.6 625.88-21.6L625.88-21.6Q627.88-21.6 629.96-21.05 632.03-20.5 632.83-19.35L632.83-19.35Q634.68-16.75 634.68-14.25L634.68-14.25Q634.68-12.9 634.11-11.95 633.53-11 632.48-9.9L632.48-9.9Q631.63-9 629.81-8.7 627.98-8.4 626.18-8.4L626.18-8.4Q625.03-8.4 623.38-8.63 621.73-8.85 620.18-9.2L620.18-9.2Q620.28-8.2 620.68-7.25 621.08-6.3 621.63-5.8L621.63-5.8Q622.63-4.85 623.71-4.6 624.78-4.35 626.48-4.35L626.48-4.35Q628.28-4.35 629.83-4.95L629.83-4.95Q631.08-5.4 631.88-5.4L631.88-5.4Q632.83-5.4 633.33-4.83 633.83-4.25 633.83-3.35L633.83-3.35Q633.83-2.1 632.38-1.3 630.93-0.5 629.06-0.13 627.18 0.25 626.03 0.25L626.03 0.25Q623.68 0.25 621.48-0.6 619.28-1.45 617.83-3L617.83-3Q616.63-4.4 615.93-6.38 615.23-8.35 615.23-10.6L615.23-10.6ZM626.13-17.35Q625.03-17.35 623.93-16.93 622.83-16.5 622.13-15.75L622.13-15.75Q621.23-14.8 620.91-14.23 620.58-13.65 620.48-12.65L620.48-12.65Q621.73-12.25 625.68-12.25L625.68-12.25Q627.83-12.25 629.01-12.9 630.18-13.55 630.18-14.6L630.18-14.6Q630.18-15.65 628.88-16.5 627.58-17.35 626.13-17.35L626.13-17.35ZM640.63-17.4Q640.18-17.4 639.78-17.32 639.38-17.25 638.98-17.25L638.98-17.25Q638.43-17.25 637.95-17.75 637.48-18.25 637.48-18.65L637.48-18.65Q637.48-19.95 638.78-20.68 640.08-21.4 641.43-21.4L641.43-21.4Q642.58-21.4 643.8-20.63 645.03-19.85 645.63-18.65L645.63-18.65Q646.93-20.2 648.83-20.9 650.73-21.6 652.78-21.6L652.78-21.6Q655.08-21.6 657.05-20.15 659.03-18.7 660.18-16.48 661.33-14.25 661.33-12.05L661.33-12.05Q661.33-9.9 660.88-8.22 660.43-6.55 659.28-4.85L659.28-4.85Q657.98-3.05 655.8-1.9 653.63-0.75 650.63-0.75L650.63-0.75Q649.83-0.75 648.68-1.18 647.53-1.6 646.78-2.1L646.78-2.1Q646.43 1.3 646.43 3.8L646.43 3.8Q646.43 5.3 646.58 6.65L646.58 6.65Q646.68 8.25 646.68 8.95L646.68 8.95Q646.68 10.05 645.93 10.58 645.18 11.1 644.28 11.1L644.28 11.1Q642.48 11.1 641.9 10.13 641.33 9.15 641.33 7.35L641.33 7.35Q641.53 3.05 641.83-0.6L641.83-0.6Q642.13-5.1 642.13-14.5L642.13-14.5Q642.13-15.4 641.78-16.4 641.43-17.4 640.63-17.4L640.63-17.4ZM646.98-7.05Q647.23-6.1 648.4-5.48 649.58-4.85 650.53-4.85L650.53-4.85Q653.38-4.85 654.78-6.4L654.78-6.4Q655.83-7.5 656.15-8.55 656.48-9.6 656.48-11.9L656.48-11.9Q656.48-13.7 655.78-14.93 655.08-16.15 654.08-16.73 653.08-17.3 652.18-17.3L652.18-17.3Q650.13-17.3 648.85-16.07 647.58-14.85 647.23-12.75L647.23-12.75Q646.98-11.1 646.98-7.05L646.98-7.05ZM671.38 10.2Q669.48 10.2 668.2 9.58 666.93 8.95 666.3 8.08 665.68 7.2 665.68 6.55L665.68 6.55Q665.68 5.7 666.28 5.23 666.88 4.75 667.73 4.75L667.73 4.75Q668.23 4.75 668.68 5.05 669.13 5.35 669.18 5.4L669.18 5.4Q669.53 5.65 669.88 5.83 670.23 6 670.63 6L670.63 6Q671.73 6 672.43 4.55 673.13 3.1 673.83-0.15L673.83-0.15Q671.58-3.45 670.08-6.75L670.08-6.75 668.93-9.4Q668.68-10 667.55-12.53 666.43-15.05 665.33-17L665.33-17Q664.63-18.4 664.63-18.9L664.63-18.9Q664.63-20.15 665.5-20.75 666.38-21.35 667.53-21.35L667.53-21.35Q668.33-21.35 668.75-21.03 669.18-20.7 669.73-19.85L669.73-19.85Q671.18-17.45 672.88-12.65L672.88-12.65Q673.88-9.9 674.48-8.47 675.08-7.05 675.93-5.6L675.93-5.6Q676.78-7.55 678.08-12.25L678.08-12.25Q678.88-14.95 679.4-16.57 679.93-18.2 680.58-19.55L680.58-19.55Q681.03-20.45 681.7-21 682.38-21.55 683.23-21.55L683.23-21.55Q684.08-21.55 685.05-20.93 686.03-20.3 686.03-19.45L686.03-19.45Q686.03-18.95 685.68-18.25L685.68-18.25Q683.73-13.75 682.25-9.78 680.78-5.8 679.43-1.05L679.43-1.05Q678.63 1.6 677.75 4 676.88 6.4 676.53 6.95L676.53 6.95Q675.53 8.35 674.28 9.28 673.03 10.2 671.38 10.2L671.38 10.2ZM722.07-6.8Q723.02-6.8 723.5-6.08 723.97-5.35 723.97-4.5L723.97-4.5Q723.97-3.45 723.65-3.03 723.32-2.6 722.42-2.15L722.42-2.15Q720.32-1.15 717.22-0.55 714.12 0.05 710.57 0.05L710.57 0.05Q706.12 0.05 704.05-1.45 701.97-2.95 701.5-5.08 701.02-7.2 701.02-10.65L701.02-10.65Q701.02-14.35 701.32-17.93 701.62-21.5 702.37-27.05L702.37-27.05Q702.72-29.45 704.27-30.53 705.82-31.6 707.67-31.6L707.67-31.6Q709.22-31.6 712.72-31.7L712.72-31.7 717.07-31.75Q719.77-31.75 720.97-31.6L720.97-31.6Q722.47-31.3 723.2-30.93 723.92-30.55 723.92-29.65L723.92-29.65Q723.92-28.65 723.25-27.7 722.57-26.75 721.22-26.75L721.22-26.75Q719.67-26.75 716.77-26.95L716.77-26.95Q713.87-27.15 712.42-27.15L712.42-27.15Q711.17-27.15 709.97-27L709.97-27Q708.57-26.9 707.97-26.65 707.37-26.4 707.27-25.8L707.27-25.8Q706.57-20.65 706.57-18.2L706.57-18.2Q707.72-18.05 708.82-18.05L708.82-18.05Q710.22-18.05 711.82-18.2 713.42-18.35 713.87-18.4L713.87-18.4Q716.52-18.65 718.42-18.65L718.42-18.65Q719.52-18.65 720.1-18.25 720.67-17.85 720.67-17.15L720.67-17.15Q720.67-16.05 720.1-15.45 719.52-14.85 718.07-14.55L718.07-14.55Q716.32-14.2 713.75-14 711.17-13.8 708.72-13.8L708.72-13.8Q707.87-13.8 706.37-13.9L706.37-13.9Q706.22-10.85 706.22-8.25L706.22-8.25Q706.22-4.7 710.92-4.7L710.92-4.7Q713.42-4.7 715.07-5.05 716.72-5.4 718.87-6.05L718.87-6.05Q720.87-6.8 722.07-6.8L722.07-6.8ZM751.02-3.85Q751.27-3.75 751.82-3.6 752.37-3.45 752.62-3.3 752.87-3.15 752.87-2.85L752.87-2.85Q752.92-1.65 751.99-0.88 751.07-0.1 749.82-0.1L749.82-0.1Q747.87-0.1 746.77-1.15 745.67-2.2 745.17-4.35L745.17-4.35Q744.97-5.2 744.97-6.7L744.97-6.7Q744.97-7.55 745.07-9.45L745.07-9.45Q745.17-11.45 745.17-12.65L745.17-12.65Q745.17-14.4 744.19-15.73 743.22-17.05 741.47-17.05L741.47-17.05Q740.42-17.05 739.27-16.43 738.12-15.8 737.67-14.9L737.67-14.9Q736.92-13.45 736.62-11.75L736.62-11.75Q736.07-8.75 736.07-5.5L736.07-5.5Q736.07-3.95 736.12-3.1L736.12-3.1Q736.12-2.9 736.14-2.33 736.17-1.75 736.04-1.28 735.92-0.8 735.62-0.4L735.62-0.4Q735.37-0.15 734.84 0.03 734.32 0.2 733.87 0.2L733.87 0.2Q733.17 0.2 732.12-0.4 731.07-1 730.92-1.75L730.92-1.75 730.87-2.6Q730.87-3.05 730.97-3.65L730.97-3.65Q731.57-7.15 731.57-9.75L731.57-9.75Q731.57-10.9 731.52-11.55L731.52-11.55 731.47-13.9Q731.47-15.1 730.87-16.23 730.27-17.35 729.47-17.35L729.47-17.35Q729.22-17.35 728.77-17.18 728.32-17 728.02-17L728.02-17Q727.52-17 726.94-17.5 726.37-18 726.37-18.55L726.37-18.55Q726.37-19.6 727.07-20.25L727.07-20.25Q727.82-20.85 728.54-21.2 729.27-21.55 730.22-21.55L730.22-21.55Q731.02-21.55 731.52-21.4 732.02-21.25 732.87-20.75L732.87-20.75Q733.32-20.5 733.92-19.65 734.52-18.8 734.92-17.25L734.92-17.25Q736.22-19.65 738.14-20.63 740.07-21.6 743.07-21.6L743.07-21.6Q744.22-21.6 745.54-20.85 746.87-20.1 747.82-19.1L747.82-19.1Q748.72-18 749.32-16.38 749.92-14.75 749.92-13.45L749.92-13.45Q749.92-12.7 749.82-11L749.82-11Q749.67-9.65 749.67-8.15L749.67-8.15Q749.67-4.65 751.02-3.85L751.02-3.85ZM776.27-16.05Q776.67-15.35 776.92-14.03 777.17-12.7 777.17-11.65L777.17-11.65Q777.17-9.7 776.32-6.1L776.32-6.1Q772.87 0.2 766.12 0.2L766.12 0.2Q763.62 0.2 761.02-1.45 758.42-3.1 757.42-5.25L757.42-5.25Q756.07-9.55 756.07-10.7L756.07-10.7Q756.07-12.7 756.94-14.95 757.82-17.2 759.17-18.85L759.17-18.85Q760.02-20 762.22-20.83 764.42-21.65 766.22-21.65L766.22-21.65Q769.72-21.65 772.17-20.33 774.62-19 776.27-16.05L776.27-16.05ZM771.92-8Q772.17-8.65 772.17-11.35L772.17-11.35Q772.17-12.8 771.64-14.2 771.12-15.6 770.12-16.6L770.12-16.6Q770.02-16.7 769.57-16.93 769.12-17.15 768.34-17.38 767.57-17.6 766.57-17.6L766.57-17.6Q763.77-17.6 762.47-15.35 761.17-13.1 761.17-10.25L761.17-10.25Q761.17-9.75 761.44-8.35 761.72-6.95 761.92-6.6L761.92-6.6Q762.07-6.25 762.69-5.63 763.32-5 764.24-4.53 765.17-4.05 766.17-4.05L766.17-4.05Q768.42-4.05 769.77-5.13 771.12-6.2 771.92-8L771.92-8ZM781.11-16.85Q780.71-16.85 780.39-17.18 780.06-17.5 780.06-17.95L780.06-17.95Q780.06-19.1 781.06-20.1L781.06-20.1Q781.36-20.25 782.26-20.6 783.16-20.95 783.86-20.95L783.86-20.95Q785.76-20.95 786.96-19.93 788.16-18.9 788.16-17L788.16-17Q788.16-16.45 787.96-14.65L787.96-14.65Q787.76-12.55 787.76-11.4L787.76-11.4Q787.76-7.9 788.71-5.75L788.71-5.75Q789.06-5.05 789.81-4.65 790.56-4.25 791.16-4.25L791.16-4.25Q792.61-4.25 793.51-4.75 794.41-5.25 795.46-6.35L795.46-6.35Q796.51-7.45 796.84-8.85 797.16-10.25 797.31-12.7L797.31-12.7Q797.41-14.3 797.51-15.05L797.51-15.05Q797.76-17.45 797.76-19.15L797.76-19.15Q797.76-20.25 798.36-20.98 798.96-21.7 800.01-21.7L800.01-21.7Q800.61-21.7 801.39-21.33 802.16-20.95 802.41-20.45L802.41-20.45Q802.71-19.95 802.71-18.8L802.71-18.8Q802.71-18.2 802.56-17.65L802.56-17.65Q802.21-16.4 802.21-14.65L802.21-14.65 802.26-12.05Q802.26-8.5 802.76-6.8L802.76-6.8Q803.01-6 803.46-5.18 803.91-4.35 804.31-3.8L804.31-3.8Q805.31-2.7 805.61-2.27 805.91-1.85 805.91-1.45L805.91-1.45Q805.91-0.85 805.34-0.33 804.76 0.2 804.11 0.2L804.11 0.2Q802.26 0.2 800.91-1.05 799.56-2.3 798.91-4.3L798.91-4.3Q797.21-2.35 795.76-1.15L795.76-1.15Q794.76-0.45 793.31-0.13 791.86 0.2 790.41 0.2L790.41 0.2Q788.46 0.2 786.46-1.4 784.46-3 783.76-5.1L783.76-5.1Q783.71-5.2 783.49-5.9 783.26-6.6 783.26-8L783.26-8Q783.26-9.85 783.46-12.65L783.46-12.65Q783.61-14.45 783.61-15.95L783.61-15.95Q783.61-16.4 783.29-16.7 782.96-17 782.56-17L782.56-17Q782.26-17 781.89-16.93 781.51-16.85 781.11-16.85L781.11-16.85ZM827.76-0.1Q829.11 0.85 829.59 2 830.06 3.15 830.06 5.2L830.06 5.2Q830.06 6.2 829.49 7.2 828.91 8.2 828.31 8.65L828.31 8.65Q823.56 11.25 818.81 11.25L818.81 11.25Q816.46 11.25 814.76 10.65 813.06 10.05 811.56 9.05L811.56 9.05Q810.56 8.3 809.94 6.98 809.31 5.65 809.31 4.35L809.31 4.35Q809.31 2.55 810.44 1.2 811.56-0.15 813.46-0.75L813.46-0.75Q813.11-1.5 813.11-2.5L813.11-2.5Q813.11-3.45 814.51-5.35L814.51-5.35Q812.11-6.15 810.74-8.2 809.36-10.25 809.36-13L809.36-13Q809.36-14.7 810.16-16.03 810.96-17.35 812.56-19.1L812.56-19.1Q813.66-20.3 815.36-20.85 817.06-21.4 819.61-21.4L819.61-21.4Q821.41-21.4 824.06-20.6L824.06-20.6Q827.21-22.8 829.61-22.8L829.61-22.8Q830.21-22.8 830.99-22.5 831.76-22.2 832.16-21.9L832.16-21.9Q832.46-21.35 832.46-20.05L832.46-20.05Q832.46-19.55 832.04-19.07 831.61-18.6 830.96-18.6L830.96-18.6 829.76-18.65Q828.86-18.75 828.36-18.75L828.36-18.75Q827.81-18.75 826.71-18.65L826.71-18.65Q827.76-17.4 828.34-16 828.91-14.6 828.91-12.35L828.91-12.35Q828.91-10.65 827.66-8.8 826.41-6.95 824.71-5.9L824.71-5.9Q822.11-4.5 818.66-4.45L818.66-4.45Q818.26-4.05 817.99-3.73 817.71-3.4 817.71-3.2L817.71-3.2Q817.71-2.65 818.66-2.35 819.61-2.05 821.56-1.9L821.56-1.9Q823.06-1.8 824.89-1.28 826.71-0.75 827.76-0.1L827.76-0.1ZM818.96-8.55Q821.26-8.55 822.66-9.8 824.06-11.05 824.06-13.35L824.06-13.35Q824.06-15.1 822.81-16.2 821.56-17.3 819.61-17.3L819.61-17.3Q818.36-17.3 816.94-16.88 815.51-16.45 814.91-15.55L814.91-15.55Q814.61-15.15 814.31-14.03 814.01-12.9 814.01-12.3L814.01-12.3Q814.01-11.45 814.74-10.58 815.46-9.7 816.64-9.13 817.81-8.55 818.96-8.55L818.96-8.55ZM822.11 2.3Q819.36 2.05 818.24 1.83 817.11 1.6 816.41 1.3L816.41 1.3Q813.86 2.65 813.86 4.25L813.86 4.25Q813.86 5.75 815.41 6.53 816.96 7.3 818.96 7.3L818.96 7.3Q819.86 7.3 821.41 7.1 822.96 6.9 824.01 6.4L824.01 6.4Q824.71 6.05 825.06 5.73 825.41 5.4 825.41 4.55L825.41 4.55Q825.41 3.5 824.31 2.95 823.21 2.4 822.11 2.3L822.11 2.3ZM841.41-31.7Q841.41-30.4 841.36-28.68 841.31-26.95 841.26-26.05L841.26-26.05Q841.11-23.5 841.11-20.95L841.11-20.95Q841.11-19.05 841.26-17L841.26-17Q842.81-19.25 844.61-20.3 846.41-21.35 848.96-21.35L848.96-21.35Q850.81-21.35 852.41-19.7 854.01-18.05 854.46-15.85L854.46-15.85Q854.61-13.9 854.61-11.1L854.61-11.1Q854.61-9.3 854.81-6.4L854.81-6.4Q854.91-5.3 855.38-4.35 855.86-3.4 856.76-3.4L856.76-3.4Q857.21-3.4 857.48-3.45 857.76-3.5 858.01-3.5L858.01-3.5Q858.71-3.5 858.98-3.15 859.26-2.8 859.26-2.15L859.26-2.15Q859.26-0.95 858.06-0.35 856.86 0.25 855.86 0.25L855.86 0.25Q852.26 0.25 850.91-2.75L850.91-2.75Q850.16-4.45 849.96-7.18 849.76-9.9 849.76-13.55L849.76-13.55Q849.76-17.15 847.31-17.15L847.31-17.15Q845.96-17.15 844.58-15.73 843.21-14.3 842.31-11.98 841.41-9.65 841.41-7.15L841.41-7.15 841.46-1.95Q841.46-0.85 840.61-0.33 839.76 0.2 839.01 0.2L839.01 0.2Q837.91 0.2 837.01-0.48 836.11-1.15 836.11-2L836.11-2Q836.46-5.75 836.46-14.55L836.46-14.55Q836.46-16.15 836.21-26.4L836.21-26.4 836.06-31Q836.06-32.1 837.06-32.93 838.06-33.75 839.31-33.75L839.31-33.75Q840.41-33.75 840.91-33.25 841.41-32.75 841.41-31.7L841.41-31.7ZM868.51-29Q868.51-26.3 868.21-21.1L868.21-21.1Q867.91-16.1 867.91-13.45L867.91-13.45Q867.91-12.75 868.01-10.55L868.01-10.55Q867.96-9.7 867.41-9.28 866.86-8.85 866.11-8.85L866.11-8.85Q865.31-8.85 864.66-9.25 864.01-9.65 863.86-10.3L863.86-10.3Q863.26-14.4 863.26-20.1L863.26-20.1 863.31-27.9Q863.31-29.75 863.78-30.93 864.26-32.1 865.86-32.1L865.86-32.1Q867.21-32.1 867.86-31.23 868.51-30.35 868.51-29L868.51-29ZM865.86-6.25Q869.26-6.25 869.26-3.7L869.26-3.7Q869.26-2.4 868.43-1.33 867.61-0.25 866.36-0.25L866.36-0.25Q864.86-0.25 863.91-1.18 862.96-2.1 862.96-3.35L862.96-3.35Q862.96-4.45 863.78-5.35 864.61-6.25 865.86-6.25L865.86-6.25Z" opacity="1" transform="matrix(1,0,0,1,0,0)" fill="#000000" class="undefined-text-1" data-fill-palette-color="secondary" id="text-1"></path></svg></g></svg></g></svg></g></svg></g></svg></g></svg></g></svg></g><g mask="url(#b5e85403-0fa7-41b1-84ed-b1b1b52f1add)"><g transform="matrix(2.720368669648288, 0, 0, 2.720368669648288, 85.36858441493143, 0.9999999999999858)"><svg xmlns:xlink="http://www.w3.org/1999/xlink" version="1.1" x="0" y="0" viewBox="9.095949172973633 5.265152931213379 82.62954711914062 90.13484191894531" style="enable-background:new 0 0 100 100;" xml:space="preserve" height="90.13484191894531" width="82.62954711914062" class="icon-none" data-fill-palette-color="accent" id="none"><g fill="#d3d3d3" data-fill-palette-color="accent"><path d="M38 6.2c2.9-0.6 5.8-0.8 8.8-0.9 4.2-0.1 8.5 0 12.7 0.5 1.6 0.2 3.3 0.5 4.8 1.2 0.4 0.2 1 0.5 1.1 1 0 2.1 0 4.2 0 6.4 2.3 0.2 4.5 0.3 6.8 0.6 1.5 0.2 3.1 0.4 4.6 0.8 0.7 0.2 1.3 0.3 2 0.6 0.2 0.1 0.5 0.3 0.6 0.5 0.1 0.2-0.1 0.4-0.3 0.6-0.4 0.3-0.9 0.4-1.3 0.6-1.2 0.4-2.4 0.6-3.7 0.8-2.4 0.4-4.8 0.6-7.2 0.8 1.6 1.5 2.9 3.3 3.9 5.2 6.5-1.9 13-3.7 19.5-5.6-0.7 7.1-1.5 14.2-2.2 21.3 1 0.8 1.8 1.9 2.3 3.1 0.8 1.8 1.2 3.7 1.3 5.7 0.1 2-0.1 4-0.5 6-0.5 2.5-1.5 5.1-3.2 7.1-0.7 0.8-1.5 1.5-2.4 1.9-0.6 6-1.2 11.9-1.9 17.9-13.5 4.4-27 8.8-40.6 13.1-8.5-4.5-17-9-25.5-13.5-0.6-5.8-1.2-11.5-1.8-17.3-1.4-0.3-2.6-1.4-3.5-2.5-1.7-2.1-2.5-4.8-2.9-7.4C9.1 52.4 9 50.2 9.2 48c0.3-2 0.8-4 2-5.8 0.6-0.8 1.3-1.6 2.1-2.1-0.7-7-1.5-13.9-2.2-20.9 5.6 2.3 11.2 4.6 16.8 7 1.1-2.5 2.7-4.8 4.7-6.7-2.8-0.2-5.7-0.5-8.4-1.1-0.9-0.2-1.7-0.4-2.5-0.8-0.2-0.1-0.5-0.4-0.4-0.7 0.2-0.3 0.6-0.5 0.9-0.6 1.1-0.4 2.2-0.6 3.4-0.8 2.8-0.5 5.7-0.7 8.5-1 0-2.1 0-4.2 0-6.3 0-0.5 0.4-0.7 0.8-0.9C35.9 6.7 37 6.5 38 6.2M43.5 35.1c0 19.1 0 38.3 0 57.4 12.6-4.1 25.2-8.2 37.9-12.3 0.5-5.2 1.1-10.5 1.6-15.7-2.8-0.3-5.6-0.5-8.4-0.8-0.8-0.1-1.5-0.1-2.2-0.4-1.2-0.5-2.2-1.7-2.4-3.1-0.2-1 0.1-2.1 0.6-2.9-1-0.6-1.7-1.6-1.9-2.7-0.2-1.1 0-2.3 0.7-3.2-0.7-0.5-1.3-1.2-1.5-2.1-0.4-1.1-0.2-2.3 0.3-3.3 0.6-1 1.5-1.7 2.6-2-0.4-1.1-0.3-2.4 0.3-3.4 0.6-1.1 1.8-1.9 3.1-2.1 0.5-0.1 1.1 0 1.6 0.1 3.3 0.3 6.6 0.6 9.9 0.9 0.6-5.7 1.2-11.4 1.8-17.1C72.8 26.8 58.1 30.9 43.5 35.1M36.4 23.1c-1.2 0.5-2.1 1.5-2.4 2.7-0.3 1-0.2 2 0.2 2.9 1.8 0.7 3.5 1.5 5.3 2.2 1-0.4 1.9-1.2 2.3-2.1-0.5 0.1-0.9 0-1.4-0.2-0.7-0.3-1.1-1-1.2-1.7-0.1-0.7 0.3-1.5 0.9-1.9 0.4-0.3 0.9-0.4 1.4-0.4-0.4-0.6-0.9-1-1.5-1.4C39 22.7 37.6 22.6 36.4 23.1M50.2 23.9c-0.9 0.9-1.4 2.2-1.3 3.4 0.1 1.2 0.8 2.4 1.8 3.1 1.9-0.5 3.8-1.1 5.6-1.6-0.8 0-1.6-0.6-1.9-1.3-0.3-0.7-0.1-1.6 0.4-2.2 0.4-0.5 1.1-0.7 1.7-0.7-0.7-1-1.8-1.7-2.9-1.8C52.4 22.6 51.1 23.1 50.2 23.9M14.1 23.1c0.6 5.5 1.1 11 1.7 16.4 3.2-0.3 6.3-0.5 9.5-0.8 0.5 0 1-0.1 1.4 0 1.3 0.1 2.4 0.9 3.1 2 0.6 1 0.7 2.4 0.3 3.5 0.9 0.2 1.8 0.8 2.3 1.6 0.7 0.9 0.9 2.1 0.7 3.2-0.2 1-0.8 2-1.7 2.6 0.7 0.9 0.9 2.2 0.6 3.3-0.3 1.1-1 2-1.9 2.5 0.7 1 0.8 2.3 0.5 3.4-0.5 1.5-1.9 2.7-3.5 2.8-2.9 0.2-5.8 0.5-8.6 0.7 0.5 5.3 1.1 10.5 1.7 15.8C27.5 84.1 34.9 88 42.3 92c0-19.1 0-38.1 0-57.2C32.9 30.9 23.5 27 14.1 23.1M25.9 41.2c-3.7 0.3-7.3 0.6-11 0.9-0.2 0-0.4 0.2-0.6 0.3-0.6 0.4-1 1-1.3 1.6-0.7 1.2-1.1 2.6-1.3 3.9-0.3 1.8-0.2 3.7 0 5.5 0.2 1.7 0.6 3.4 1.3 4.9 0.6 1.2 1.3 2.3 2.3 3.1 0.4 0.3 0.8 0.6 1.3 0.5 3.4-0.3 6.7-0.5 10.1-0.8 0.7-0.1 1.3-0.7 1.4-1.4 0.1-0.7-0.4-1.4-1.1-1.6-0.3-0.1-0.7-0.1-1 0-2.4 0.2-4.9 0.4-7.3 0.6-0.6 0.1-1.3-0.4-1.4-1.1-0.1-0.7 0.4-1.4 1.1-1.4 3.2-0.3 6.4-0.5 9.6-0.8 0.5 0 1-0.4 1.3-0.8 0.2-0.5 0.2-1 0-1.5-0.3-0.5-0.9-0.8-1.5-0.8-3.2 0.3-6.4 0.5-9.6 0.8-0.6 0.1-1.3-0.5-1.3-1.1-0.1-0.7 0.5-1.3 1.1-1.4 3.7-0.3 7.4-0.6 11.1-0.9 0.9-0.1 1.6-1.1 1.4-2-0.2-0.7-0.9-1.2-1.6-1.1-3.6 0.3-7.1 0.6-10.7 0.9-0.3 0-0.7 0.1-1-0.1-0.5-0.2-0.8-0.8-0.8-1.3 0.1-0.6 0.6-1 1.2-1.1 2.9-0.2 5.7-0.5 8.6-0.7 0.9 0 1.6-0.8 1.5-1.7C27.7 41.8 26.8 41.1 25.9 41.2M74.2 41.2c-0.6 0.2-1.1 0.8-1.1 1.5 0 0.8 0.6 1.5 1.4 1.5 2.8 0.3 5.6 0.5 8.5 0.8 0.3 0 0.6 0.1 0.9 0.3 0.5 0.4 0.6 1.1 0.3 1.7-0.3 0.4-0.7 0.6-1.2 0.6-3.7-0.4-7.4-0.7-11.1-1.1-0.8-0.1-1.6 0.6-1.6 1.4-0.1 0.8 0.6 1.6 1.4 1.7 3.7 0.4 7.4 0.7 11.1 1.1 0.5 0 1 0.5 1.1 1 0.1 0.6-0.2 1.2-0.8 1.4-0.3 0.1-0.6 0.1-0.9 0-3.1-0.3-6.1-0.6-9.2-0.9-0.3 0-0.6 0-0.9 0.2-0.6 0.3-0.9 1-0.8 1.6 0.1 0.7 0.7 1.3 1.4 1.3 3.2 0.3 6.4 0.6 9.6 0.9 0.6 0.1 1 0.6 1.1 1.2 0 0.5-0.3 1.1-0.8 1.3-0.3 0.1-0.7 0.1-1 0-2.4-0.2-4.9-0.5-7.3-0.7-0.8-0.1-1.5 0.5-1.6 1.3-0.1 0.6 0.2 1.3 0.8 1.6 0.3 0.2 0.6 0.2 1 0.2 3.2 0.3 6.3 0.6 9.5 0.9 0.2 0 0.5 0.1 0.7 0 0.7-0.2 1.2-0.7 1.7-1.2 1-1 1.6-2.3 2.1-3.7 0.6-1.8 0.9-3.7 1.1-5.6 0.1-2 0-4.1-0.7-6-0.4-1-0.9-2.1-1.7-2.8-0.3-0.2-0.6-0.5-0.9-0.5-3.5-0.3-7-0.7-10.5-1C74.9 41.2 74.5 41.1 74.2 41.2z" fill="#000000" data-fill-palette-color="accent"></path></g></svg></g></g></svg></g><defs><mask id="2e045f0c-7211-462f-b282-35d3102c6337"><rect width="640" height="400" fill="white"></rect><rect width="348.05760000000004" height="126.71692606206278" fill="black" y="60.2415369689686" x="23.731199999999973" id="transform-me"></rect></mask><mask id="b5e85403-0fa7-41b1-84ed-b1b1b52f1add"><rect width="640" height="400" fill="white"></rect><rect width="348.05760000000004" height="126.71692606206278" fill="black" y="60.2415369689686" x="23.731199999999973" id="transform-me"></rect></mask></defs></svg><rect width="395.52" height="247.2" fill="none" stroke="none" visibility="hidden"></rect></g></svg></g></svg>